<svg width="32" height="30" viewBox="0 0 32 30" fill="none" xmlns="http://www.w3.org/2000/svg">
<path fill-rule="evenodd" clip-rule="evenodd" d="M2.50646 27.5668C1.12791 27.5668 1.28656e-07 26.4389 1.19284e-07 25.0603L5.97072e-08 16.2974L6.30899 16.2974L6.30899 16.2877L10.101 16.2877C11.0785 16.2627 11.9057 15.4105 11.9057 14.4079C11.9057 13.3802 11.0535 12.5281 10.0258 12.5281L5.01292 12.5281L5.01292 12.5295L3.40912e-08 12.5295L1.70405e-08 10.0216C7.66823e-09 8.64304 1.12791 7.51514 2.50646 7.51514L10.0258 7.51514C11.9307 7.51514 13.5599 8.19188 14.8884 9.54537C16.2418 10.8738 16.9186 12.503 16.9186 14.4079C16.9186 16.2877 16.2669 17.9169 14.9385 19.2454C13.6101 20.5738 12.0059 21.2756 10.1261 21.3007L5.01292 21.3007L5.01292 25.0603C5.01292 26.4389 3.88501 27.5668 2.50646 27.5668Z" fill="#02BC6B"/>
<path fill-rule="evenodd" clip-rule="evenodd" d="M20.0777 4.60645C22.8468 7.29616 24.2422 10.646 24.2422 14.454C24.2422 18.198 22.9052 21.5448 20.1788 24.2429L16.3079 20.6008C18.0035 18.9228 18.8357 16.9026 18.8357 14.454C18.8357 11.9868 17.9784 9.96969 16.2422 8.28327L20.0777 4.60645Z" fill="#02897A"/>
<path fill-rule="evenodd" clip-rule="evenodd" d="M26.0042 -2.51649e-08C29.9927 3.98225 31.9997 8.91996 31.9997 14.587C31.9997 20.1656 30.0736 25.1003 26.1505 29.091L22.4147 25.4408C25.337 22.468 26.7689 18.8625 26.7689 14.587C26.7689 10.2687 25.2887 6.66621 22.3027 3.68493L26.0042 -2.51649e-08Z" fill="#035B81"/>
<path fill-rule="evenodd" clip-rule="evenodd" d="M0 21.3218L5.01292 21.3218L5.01292 25.0606C5.01292 26.4392 3.88501 27.5671 2.50646 27.5671C1.12791 27.5671 3.47914e-08 26.4392 2.54191e-08 25.0606L0 21.3218Z" fill="#028E37"/>
</svg>
